# xmcd
# 
# Track frame offsets:
#   150
#   10954
#   22506
#   35217
#   47659
#   61525
#   74125
#   86580
#   97636
#   108015
#   120951
#   132311
#   143895
#   156276
#   171230
#   183632
#   197984
# 
# Disc length: 2821 seconds
# 
# Revision: 1
# Processed by: cddbd v1.5.2PL0 Copyright (c) Steve Scherf et al.
# Submitted via: Synapstar 1.0 
# 
DISCID=de0b0311
DTITLE=Various Artist - CBEP451-02
DYEAR=1900
DGENRE=Country
TTITLE0=Webb Pierce - In The Jailhouse Now
TTITLE1=Ferlin Husky - Gone
TTITLE2=Marty Robbins - Singing The Blues
TTITLE3=Webb Pierce - There Stands The Glass
TTITLE4=Leroy Van Dyke - Auctioneer
TTITLE5=Ray Price - Crazy Arms
TTITLE6=Goldie Hill - I Let The Stars Get In My Eyes
TTITLE7=Webb Pierce - I Don't Care
TTITLE8=Faron Young - Alone With You
TTITLE9=Jim Reeves - Am I Losing You
TTITLE10=Browns, The - Looking Back To See
TTITLE11=Webb Pierce - Slowly
TTITLE12=Don Gibson - Oh Lonesome Me
TTITLE13=Ray Price - City Lights
TTITLE14=Johnny Cash - I Walk The Line
TTITLE15=Webb Pierce - Wondering
TTITLE16=Jean Shepard - A Satisfied Mind
EXTD=Chartbusters MediaType: Karaoke CD+G Producer: Chartbuster
EXTT0=
EXTT1=
EXTT2=
EXTT3=
EXTT4=
EXTT5=
EXTT6=
EXTT7=
EXTT8=
EXTT9=
EXTT10=
EXTT11=
EXTT12=
EXTT13=
EXTT14=
EXTT15=
EXTT16=
PLAYORDER=
